# xmcd
#
# Track frame offsets: 
#        150
#        13940
#        21586
#        34348
#        43402
#        55055
#        68532
#        82359
#        93404
#        104449
#        116250
#        128509
#        145408
#        156386
#        167052
#        178111
#        189082
#        200464
#
# Disc length: 2844 seconds
#
# Revision: 1
# Processed by: cddbd v1.5.2PL0 Copyright (c) Steve Scherf et al.
# Submitted via: ExactAudioCopy v1.0b3
#
DISCID=010b1a12
DTITLE=Hank Williams - Ramblin' Man
DYEAR=1900
DGENRE=Country
TTITLE0=Ramblin' Man
TTITLE1=I Can't Get You Off My Mind
TTITLE2=Please Make Up Your Mind
TTITLE3=Alone And Forsaken
TTITLE4=A Mansion On the Hill
TTITLE5=Be Careful Of Stones That You Throw
TTITLE6=Lost Highway
TTITLE7=(I Heard That) Lonesome Whistle
TTITLE8=No, No, Joe
TTITLE9=Settin' The Woods On Fire
TTITLE10=Your Cheatin' Heart
TTITLE11=Cool Water
TTITLE12=First Year Blues
TTITLE13=The Angel Of Death
TTITLE14=I'll Never Get Out Of This World Alive
TTITLE15=Moanin' The Blues
TTITLE16=I'm A Long Gone Daddy
TTITLE17=Pictures From Life's Other Side
EXTD=
EXTT0=
EXTT1=
EXTT2=
EXTT3=
EXTT4=
EXTT5=
EXTT6=
EXTT7=
EXTT8=
EXTT9=
EXTT10=
EXTT11=
EXTT12=
EXTT13=
EXTT14=
EXTT15=
EXTT16=
EXTT17=
PLAYORDER=
